<?xml version="1.0" standalone="no"?>
<!DOCTYPE svg PUBLIC "-//W3C//DTD SVG 20010904//EN"
 "http://www.w3.org/TR/2001/REC-SVG-20010904/DTD/svg10.dtd">
<svg version="1.0" xmlns="http://www.w3.org/2000/svg"
 width="1184.000000pt" height="1184.000000pt" viewBox="0 0 1184.000000 1184.000000"
 preserveAspectRatio="xMidYMid meet">
<metadata>
Created by potrace 1.11, written by Peter Selinger 2001-2013
</metadata>
<g transform="translate(0.000000,1184.000000) scale(0.100000,-0.100000)"
fill="#000000" stroke="none">
<path d="M9105 8329 c-256 -22 -350 -34 -550 -70 -255 -47 -466 -110 -648
-194 -93 -43 -152 -55 -277 -55 -187 0 -281 29 -553 170 -168 88 -372 132
-510 112 -86 -13 -173 -43 -212 -74 -75 -59 -105 -167 -86 -310 6 -51 17 -109
23 -130 14 -47 4 -83 -32 -119 -24 -24 -37 -29 -78 -29 -86 0 -249 60 -364
133 -31 21 -59 37 -61 37 -3 0 -42 21 -88 46 -391 217 -961 447 -1171 474
-295 37 -521 -37 -594 -194 -29 -62 -29 -77 -4 -157 50 -163 265 -374 630
-617 74 -49 150 -97 168 -106 45 -23 147 -127 171 -173 42 -83 45 -198 7 -270
-27 -52 -88 -114 -136 -138 -118 -60 -292 -56 -425 10 -95 47 -319 219 -509
390 -258 233 -295 267 -601 561 -279 267 -423 377 -653 494 -170 87 -292 120
-440 120 -164 0 -258 -36 -357 -135 -111 -110 -145 -221 -111 -355 21 -81 86
-196 150 -267 53 -59 225 -211 326 -288 36 -27 74 -57 85 -67 31 -26 333 -249
659 -487 195 -142 296 -261 296 -349 0 -114 -155 -266 -314 -308 -28 -8 -100
-14 -161 -14 -179 0 -357 38 -582 124 -163 63 -378 134 -618 205 -295 87 -500
131 -616 131 -127 0 -247 -40 -280 -94 -46 -76 -6 -212 101 -343 71 -88 130
-214 130 -279 0 -35 -55 -89 -105 -103 -78 -23 -201 -41 -275 -41 -274 0 -454
-193 -437 -466 9 -148 74 -230 201 -254 85 -16 209 1 321 42 256 96 244 93
350 93 128 0 180 -21 225 -91 26 -42 30 -57 30 -118 0 -93 -21 -134 -117 -230
l-77 -76 -73 0 c-189 0 -336 -77 -404 -211 -56 -113 -34 -227 63 -314 120
-107 267 -137 498 -100 163 27 422 124 555 208 69 43 213 153 266 202 62 58
147 157 183 215 131 208 614 693 800 804 140 83 199 101 331 100 97 0 117 -3
166 -26 66 -30 176 -134 207 -194 12 -23 35 -87 51 -144 27 -88 31 -119 31
-216 0 -96 -4 -126 -26 -191 -34 -101 -57 -145 -111 -214 -45 -57 -83 -86
-101 -75 -26 16 -178 36 -272 36 -232 0 -396 -94 -486 -277 -100 -205 -27
-410 183 -517 91 -46 171 -59 328 -53 218 7 403 64 650 199 185 100 330 199
439 298 78 71 183 227 237 354 17 39 37 86 45 104 39 85 89 229 121 347 64
233 74 269 99 350 57 183 157 380 231 454 34 34 85 71 99 71 6 0 14 -22 18
-49 30 -226 225 -427 461 -476 186 -39 427 4 595 105 102 62 246 194 342 315
48 61 91 115 95 120 5 6 36 53 69 105 60 93 106 179 219 408 62 125 88 169
213 355 91 135 137 179 207 198 100 27 183 -11 323 -147 85 -83 123 -112 194
-149 84 -42 94 -45 168 -45 73 0 93 4 160 33 105 47 241 184 335 338 105 173
394 599 528 776 49 66 126 140 202 198 281 210 890 339 1331 281 214 -29 318
-55 499 -128 175 -70 263 -119 383 -211 83 -64 143 -89 213 -89 67 0 105 18
151 71 35 41 78 147 78 191 0 37 -33 84 -83 119 -100 68 -358 160 -542 192
-382 67 -690 106 -1075 134 -210 16 -865 18 -1025 4z m-565 -461 c0 -15 -33
-32 -645 -341 -430 -217 -738 -369 -915 -450 -281 -130 -287 -133 -294 -163
-4 -16 -18 -51 -30 -79 -13 -27 -36 -76 -50 -109 -75 -165 -200 -341 -348
-489 -83 -84 -112 -108 -130 -105 -34 5 -28 21 28 80 158 165 287 355 359 529
15 35 34 79 42 97 9 18 13 35 10 38 -3 3 -25 -3 -49 -14 -23 -11 -77 -34 -118
-52 -41 -18 -133 -60 -204 -92 -248 -115 -860 -368 -1171 -484 -110 -41 -249
-94 -310 -118 -60 -23 -182 -66 -270 -96 l-161 -54 8 -65 c21 -189 2 -517 -41
-726 -61 -288 -252 -683 -286 -592 -3 7 21 65 54 129 96 189 159 412 181 638
16 165 8 555 -12 576 -3 2 -54 -11 -114 -30 -501 -160 -850 -252 -1479 -392
-82 -19 -518 -99 -638 -118 -202 -33 -284 -45 -362 -56 -44 -6 -120 -18 -170
-26 -49 -7 -169 -23 -265 -34 -187 -22 -319 -37 -387 -46 -42 -5 -65 8 -45 28
5 5 76 20 158 33 227 36 785 132 909 155 61 12 133 25 160 30 171 30 817 174
980 219 39 10 124 33 190 51 150 40 392 108 425 119 14 5 41 13 60 19 311 93
672 216 668 228 -1 5 -39 25 -83 44 -96 42 -247 123 -292 156 -17 13 -34 24
-36 24 -5 0 -48 29 -163 109 -74 52 -194 152 -344 287 -250 225 -590 598 -590
647 0 27 40 20 64 -10 30 -40 173 -187 333 -345 412 -407 874 -728 1201 -834
l82 -27 68 23 c37 13 144 52 237 87 94 36 204 77 245 93 133 50 688 275 910
369 118 51 239 102 267 114 29 12 53 25 53 28 0 4 -24 14 -52 24 -29 9 -71 25
-93 35 -22 10 -74 32 -115 50 -186 81 -423 226 -655 402 -183 138 -271 219
-262 241 11 30 40 19 117 -44 383 -314 844 -562 1163 -629 55 -11 61 -10 135
20 117 49 1138 501 1295 574 39 19 160 73 267 121 107 48 258 116 335 150 144
65 175 74 175 53z"/>
</g>
</svg>
